<svg xmlns="http://www.w3.org/2000/svg" viewBox="0 0 1600 900"><rect width="1600" height="900" fill="#dfe4d7"/><g fill="none" stroke="#6e7967" stroke-width="2" opacity=".6"><path d="M90 130c250 160 210 460 490 540s370-220 620-190 230 170 360 230"/><path d="M50 180c270 150 230 450 500 520s360-210 610-175 220 170 350 230"/><path d="M10 230c290 140 250 440 510 500s350-200 600-160 210 170 340 230"/></g><g fill="#87927d"><circle cx="250" cy="260" r="100"/><circle cx="390" cy="320" r="135"/><circle cx="1320" cy="260" r="145"/><circle cx="1210" cy="380" r="90"/><circle cx="310" cy="700" r="150"/></g><g fill="#f3f1e9" stroke="#20241f" stroke-width="3"><path d="M590 195l170 35-20 180-170-20z"/><path d="M790 185l170 55-35 175-170-50z"/><path d="M980 270l165 30-25 180-170-35z"/><path d="M650 475l185 45-45 180-180-55z"/><path d="M860 495l170 20-10 175-180-20z"/></g><text x="70" y="835" font-family="Arial" font-size="24" letter-spacing="4" fill="#20241f">EGGARTEN FOREST CITY — IMAGE PLACEHOLDER</text></svg>
